<svg width="282" height="211" viewBox="0 0 282 211" fill="none" xmlns="http://www.w3.org/2000/svg">
<path d="M176.814 5H31.7266C24.6444 5.01726 17.8581 7.43494 12.8503 11.7248C7.84244 16.0147 5.02015 21.8281 5 27.8949V106.392C5.02015 112.459 7.84244 118.272 12.8503 122.562C17.8581 126.852 24.6444 129.269 31.7266 129.287H50.817V161.994L95.5458 130.047C96.2326 129.556 97.0992 129.287 97.9941 129.287H176.814C183.896 129.269 190.682 126.852 195.69 122.562C200.698 118.272 203.52 112.459 203.54 106.392V27.8949C203.52 21.8281 200.698 16.0147 195.69 11.7248C190.682 7.43494 183.896 5.01726 176.814 5Z" fill="#F9FAFB" stroke="#EFF2F4" stroke-width="10" stroke-linejoin="round"/>
<path d="M105.186 49.2198H250.273C257.356 49.2371 264.142 51.6516 269.15 55.9359C274.158 60.2202 276.98 66.0261 277 72.085V150.48C276.98 156.538 274.158 162.344 269.15 166.629C264.142 170.913 257.356 173.327 250.273 173.345H231.183V206.009L186.454 174.104C185.767 173.613 184.901 173.345 184.006 173.345H105.186C98.1043 173.327 91.318 170.913 86.3102 166.629C81.3023 162.344 78.48 156.538 78.4599 150.48V72.085C78.48 66.0261 81.3023 60.2202 86.3102 55.9359C91.318 51.6516 98.1043 49.2371 105.186 49.2198Z" fill="#F9FAFB" stroke="#EFF2F4" stroke-width="10" stroke-linejoin="round"/>
</svg>
