<svg width="59" height="59" viewBox="0 0 59 59" fill="none" xmlns="http://www.w3.org/2000/svg">
<circle cx="29.5" cy="29.5" r="29.5" fill="#384057"/>
<path fill-rule="evenodd" clip-rule="evenodd" d="M22.4417 11.7766C24.3967 11.6866 25.0201 11.6666 30.0001 11.6666C34.9801 11.6666 35.6034 11.6883 37.5567 11.7766C39.5101 11.865 40.8434 12.1766 42.0101 12.6283C43.2317 13.09 44.3401 13.8116 45.2567 14.745C46.1901 15.66 46.9101 16.7666 47.3701 17.99C47.8234 19.1566 48.1334 20.49 48.2234 22.44C48.3134 24.3983 48.3334 25.0216 48.3334 30C48.3334 34.98 48.3117 35.6033 48.2234 37.5583C48.1351 39.5083 47.8234 40.8416 47.3701 42.0083C46.9101 43.2318 46.1889 44.3403 45.2567 45.2566C44.3401 46.19 43.2317 46.91 42.0101 47.37C40.8434 47.8233 39.5101 48.1333 37.5601 48.2233C35.6034 48.3133 34.9801 48.3333 30.0001 48.3333C25.0201 48.3333 24.3967 48.3116 22.4417 48.2233C20.4917 48.135 19.1584 47.8233 17.9917 47.37C16.7683 46.9099 15.6598 46.1887 14.7434 45.2566C13.8107 44.3411 13.0889 43.2331 12.6284 42.01C12.1767 40.8433 11.8667 39.51 11.7767 37.56C11.6867 35.6016 11.6667 34.9783 11.6667 30C11.6667 25.02 11.6884 24.3966 11.7767 22.4433C11.8651 20.49 12.1767 19.1566 12.6284 17.99C13.0896 16.7668 13.8119 15.6588 14.7451 14.7433C15.6601 13.8108 16.7675 13.089 17.9901 12.6283C19.1567 12.1766 20.4901 11.8666 22.4401 11.7766H22.4417ZM37.4084 15.0766C35.4751 14.9883 34.8951 14.97 30.0001 14.97C25.1051 14.97 24.5251 14.9883 22.5917 15.0766C20.8034 15.1583 19.8334 15.4566 19.1867 15.7083C18.3317 16.0416 17.7201 16.4366 17.0784 17.0783C16.4702 17.67 16.002 18.3904 15.7084 19.1866C15.4567 19.8333 15.1584 20.8033 15.0767 22.5916C14.9884 24.525 14.9701 25.105 14.9701 30C14.9701 34.895 14.9884 35.475 15.0767 37.4083C15.1584 39.1966 15.4567 40.1666 15.7084 40.8133C16.0017 41.6083 16.4701 42.33 17.0784 42.9216C17.6701 43.53 18.3917 43.9983 19.1867 44.2916C19.8334 44.5433 20.8034 44.8416 22.5917 44.9233C24.5251 45.0116 25.1034 45.03 30.0001 45.03C34.8967 45.03 35.4751 45.0116 37.4084 44.9233C39.1967 44.8416 40.1667 44.5433 40.8134 44.2916C41.6684 43.9583 42.2801 43.5633 42.9217 42.9216C43.5301 42.33 43.9984 41.6083 44.2918 40.8133C44.5434 40.1666 44.8418 39.1966 44.9234 37.4083C45.0117 35.475 45.0301 34.895 45.0301 30C45.0301 25.105 45.0117 24.525 44.9234 22.5916C44.8418 20.8033 44.5434 19.8333 44.2918 19.1866C43.9584 18.3316 43.5634 17.72 42.9217 17.0783C42.33 16.4701 41.6096 16.002 40.8134 15.7083C40.1667 15.4566 39.1967 15.1583 37.4084 15.0766ZM27.6584 35.6516C28.9662 36.196 30.4224 36.2695 31.7783 35.8595C33.1342 35.4495 34.3057 34.5815 35.0928 33.4037C35.8798 32.2259 36.2335 30.8114 36.0935 29.4018C35.9535 27.9922 35.3284 26.6749 34.3251 25.675C33.6855 25.0358 32.9121 24.5463 32.0606 24.2419C31.2092 23.9374 30.3008 23.8256 29.4009 23.9143C28.501 24.0031 27.632 24.2903 26.8564 24.7552C26.0808 25.2201 25.418 25.8512 24.9156 26.603C24.4132 27.3549 24.0837 28.2088 23.9509 29.1032C23.8182 29.9977 23.8853 30.9104 24.1476 31.7758C24.41 32.6412 24.8609 33.4376 25.4679 34.1078C26.075 34.778 26.8231 35.3053 27.6584 35.6516ZM23.3367 23.3366C24.2118 22.4616 25.2506 21.7675 26.3939 21.2939C27.5372 20.8203 28.7626 20.5766 30.0001 20.5766C31.2376 20.5766 32.463 20.8203 33.6063 21.2939C34.7495 21.7675 35.7884 22.4616 36.6634 23.3366C37.5385 24.2117 38.2326 25.2505 38.7061 26.3938C39.1797 27.5371 39.4235 28.7625 39.4235 30C39.4235 31.2375 39.1797 32.4628 38.7061 33.6061C38.2326 34.7494 37.5385 35.7883 36.6634 36.6633C34.8962 38.4305 32.4993 39.4233 30.0001 39.4233C27.5008 39.4233 25.104 38.4305 23.3367 36.6633C21.5695 34.8961 20.5767 32.4992 20.5767 30C20.5767 27.5007 21.5695 25.1039 23.3367 23.3366ZM41.5134 21.98C41.7303 21.7754 41.9039 21.5294 42.0239 21.2566C42.144 20.9837 42.2081 20.6896 42.2124 20.3915C42.2168 20.0934 42.1613 19.7975 42.0492 19.5213C41.9372 19.2451 41.7708 18.9941 41.56 18.7834C41.3492 18.5726 41.0983 18.4062 40.8221 18.2942C40.5458 18.1821 40.2499 18.1266 39.9519 18.1309C39.6538 18.1353 39.3596 18.1994 39.0868 18.3195C38.8139 18.4395 38.568 18.6131 38.3634 18.83C37.9656 19.2517 37.7478 19.8118 37.7563 20.3915C37.7647 20.9712 37.9987 21.5248 38.4087 21.9347C38.8186 22.3446 39.3722 22.5787 39.9519 22.5871C40.5315 22.5956 41.0917 22.3778 41.5134 21.98Z" fill="white"/>
</svg>
