<svg width="32" height="32" viewBox="0 0 32 32" fill="none" xmlns="http://www.w3.org/2000/svg">
<g clip-path="url(#clip0_148_1563)">
<path d="M21.9787 15.9677L30.18 8.84234V23.0117L21.9787 15.9677ZM11.4107 17.1743L14.2907 19.6743C14.7427 20.0583 15.332 20.2903 15.976 20.2903H15.9987H15.9973H16.016C16.6613 20.2903 17.2507 20.057 17.708 19.6703L17.704 19.673L20.584 17.173L29.3387 24.6917H2.66L11.4107 17.1743ZM2.648 7.15301H29.3547L16.5267 18.2943C16.3824 18.4084 16.2039 18.4704 16.02 18.4703H16.0013H16.0027H15.984C15.7995 18.4706 15.6203 18.408 15.476 18.293L15.4773 18.2943L2.648 7.15301ZM1.82 8.84101L10.02 15.9663L1.82 23.0063V8.84101ZM30.62 5.58634C30.3 5.42634 29.924 5.33301 29.5253 5.33301H2.47867C2.09221 5.3331 1.71107 5.42302 1.36533 5.59567L1.38 5.58901C0.966098 5.79316 0.61753 6.10898 0.373672 6.5008C0.129814 6.89262 0.000383131 7.34483 0 7.80634L0 24.0357C0.000705872 24.6925 0.261937 25.3222 0.726374 25.7866C1.19081 26.2511 1.82052 26.5123 2.47733 26.513H29.5213C30.1781 26.5123 30.8079 26.2511 31.2723 25.7866C31.7367 25.3222 31.998 24.6925 31.9987 24.0357V7.80634C31.9987 6.83701 31.44 5.99701 30.6267 5.59301L30.612 5.58634H30.62Z" fill="black"/>
</g>
<defs>
<clipPath id="clip0_148_1563">
<rect width="32" height="32" fill="white"/>
</clipPath>
</defs>
</svg>
