<svg width="59" height="59" viewBox="0 0 59 59" fill="none" xmlns="http://www.w3.org/2000/svg">
<circle cx="29.5" cy="29.5" r="29.5" fill="#384057"/>
<g clip-path="url(#clip0_0_1)">
<path d="M48.1667 20.845C47.9402 20.0371 47.499 19.3056 46.8901 18.7284C46.2639 18.1334 45.4964 17.7078 44.6601 17.4917C41.5301 16.6667 28.9901 16.6667 28.9901 16.6667C23.7623 16.6072 18.5358 16.8688 13.3401 17.45C12.5037 17.6821 11.7377 18.1172 11.1101 18.7167C10.4934 19.31 10.0467 20.0417 9.81339 20.8434C9.25287 23.863 8.98054 26.929 9.00005 30C8.98005 33.0684 9.25172 36.1334 9.81339 39.1567C10.0417 39.955 10.4867 40.6834 11.1051 41.2717C11.7234 41.86 12.4934 42.285 13.3401 42.51C16.5117 43.3334 28.9901 43.3334 28.9901 43.3334C34.2245 43.3929 39.4577 43.1313 44.6601 42.55C45.4964 42.334 46.2639 41.9084 46.8901 41.3134C47.4988 40.7362 47.9395 40.0047 48.1651 39.1967C48.7402 36.1783 49.0199 33.111 49.0001 30.0384C49.0433 26.9527 48.764 23.871 48.1667 20.8434V20.845ZM25.0034 35.7067V24.295L35.4367 30.0017L25.0034 35.7067Z" fill="white"/>
</g>
<defs>
<clipPath id="clip0_0_1">
<rect width="40" height="40" fill="white" transform="translate(9 10)"/>
</clipPath>
</defs>
</svg>
