<svg width="100" height="100" viewBox="0 0 100 100" fill="none" xmlns="http://www.w3.org/2000/svg">
<path d="M76.6667 0H6.66667C2.985 0 0 2.985 0 6.66667V76.6667C0 80.3483 2.985 83.3333 6.66667 83.3333H76.6667C80.3483 83.3333 83.3333 80.3483 83.3333 76.6667V6.66667C83.3333 2.985 80.3483 0 76.6667 0Z" fill="#EDEFF1"/>
<path d="M83.3333 16.6667H0V6.66667C0 2.985 2.985 0 6.66667 0H76.6667C80.3483 0 83.3333 2.985 83.3333 6.66667V16.6667Z" fill="#6E83B7"/>
<path d="M11.6663 11.6667C13.5073 11.6667 14.9997 10.1743 14.9997 8.33333C14.9997 6.49238 13.5073 5 11.6663 5C9.82539 5 8.33301 6.49238 8.33301 8.33333C8.33301 10.1743 9.82539 11.6667 11.6663 11.6667Z" fill="#FFB0AA"/>
<path d="M21.6663 11.6667C23.5073 11.6667 24.9997 10.1743 24.9997 8.33333C24.9997 6.49238 23.5073 5 21.6663 5C19.8254 5 18.333 6.49238 18.333 8.33333C18.333 10.1743 19.8254 11.6667 21.6663 11.6667Z" fill="#FFE352"/>
<path d="M31.6668 11.6667C33.5078 11.6667 35.0002 10.1743 35.0002 8.33333C35.0002 6.49238 33.5078 5 31.6668 5C29.8259 5 28.3335 6.49238 28.3335 8.33333C28.3335 10.1743 29.8259 11.6667 31.6668 11.6667Z" fill="#98CA69"/>
<path d="M73.3333 21.6667L56.6667 38.3334L50 28.3334L30 50.0001L23.3333 43.3334L10 56.6667V63.3334L23.3333 50.0001L30 56.6667L50 35.0001L56.6667 45.0001L73.3333 28.3334V21.6667Z" fill="#6E83B7"/>
<path d="M20 66.6667H10V78.5417H20V66.6667Z" fill="#98CA69"/>
<path d="M33.3335 61.667H23.3335V78.3337H33.3335V61.667Z" fill="#FFB0AA"/>
<path d="M60 50.0002H50V78.3336H60V50.0002Z" fill="#FFB0AA"/>
<path d="M46.6665 55.0002H36.6665V78.3336H46.6665V55.0002Z" fill="#98CA69"/>
<path d="M73.3335 45.0002H63.3335V78.3336H73.3335V45.0002Z" fill="#98CA69"/>
<path d="M78.3337 100C90.2998 100 100 90.2996 100 78.3334C100 66.3672 90.2998 56.6667 78.3337 56.6667C66.3675 56.6667 56.667 66.3672 56.667 78.3334C56.667 90.2996 66.3675 100 78.3337 100Z" fill="#80D6FB"/>
<path d="M78.3333 96.6667C88.4586 96.6667 96.6667 88.4586 96.6667 78.3333C96.6667 68.2081 88.4586 60 78.3333 60C68.2081 60 60 68.2081 60 78.3333C60 88.4586 68.2081 96.6667 78.3333 96.6667Z" fill="#EDEFF1"/>
<path d="M86.6667 70L79.0467 75.08C78.8167 75.03 78.5783 75 78.3333 75C76.4917 75 75 76.4917 75 78.3333C75 80.175 76.4917 81.6667 78.3333 81.6667C80.175 81.6667 81.6667 80.175 81.6667 78.3333C81.6667 78.0883 81.6367 77.85 81.5867 77.62L86.6667 70Z" fill="#6E83B7"/>
<path d="M80.0003 60H76.667V63.3333H80.0003V60Z" fill="#6E83B7"/>
<path d="M95.0394 70.6111L93.373 67.7241L90.486 69.3905L92.1524 72.2775L95.0394 70.6111Z" fill="#6E83B7"/>
<path d="M88.9466 63.2896L86.0596 61.6233L84.3932 64.5103L87.2802 66.1766L88.9466 63.2896Z" fill="#6E83B7"/>
<path d="M96.6668 76.6667H93.3335V80.0001H96.6668V76.6667Z" fill="#6E83B7"/>
</svg>
