<svg width="100" height="100" viewBox="0 0 100 100" fill="none" xmlns="http://www.w3.org/2000/svg">
<path d="M50.0002 76.2718C64.1615 76.2718 75.6415 64.6961 75.6415 50.4168C75.6415 36.1375 64.1615 24.5618 50.0002 24.5618C35.8389 24.5618 24.3589 36.1375 24.3589 50.4168C24.3589 64.6961 35.8389 76.2718 50.0002 76.2718Z" fill="#E0EBFC"/>
<path d="M53.8842 38.3253L52.716 39.6636C52.5416 39.8636 52.4453 40.1207 52.4453 40.3865V43.1449C52.4453 43.2915 52.4747 43.4365 52.5313 43.5715L52.8763 44.3936C53.1205 44.9753 53.8011 45.2286 54.3614 44.9461L56.0829 44.0782C56.6027 43.8161 56.8259 43.1874 56.5883 42.6524L55.7672 40.802C55.6908 40.6299 55.6598 40.4407 55.6771 40.2528L55.7796 39.1503C55.8391 38.5082 55.3383 37.9536 54.699 37.9536C54.387 37.9536 54.0904 38.089 53.8842 38.3253Z" fill="#6BDDDD"/>
<path d="M67.6005 32.2233L63.4488 33.2046C63.2752 33.2458 63.1174 33.337 62.9947 33.4679L61.9124 34.6233C61.8513 34.6887 61.8 34.7625 61.76 34.8429L61.1476 36.0779C61.0637 36.2471 60.9302 36.3858 60.7649 36.4754L60.7633 36.4762C60.3265 36.7133 60.1583 37.2596 60.3852 37.7041L60.9509 38.8129C61.2 39.3016 61.8166 39.4612 62.2686 39.1546L63.3914 38.3929C63.7641 38.14 64.2637 38.1991 64.5686 38.5316L65.1971 39.2183C65.4744 39.5212 65.5174 39.9733 65.3021 40.3241L63.8496 42.69C63.6835 42.9604 63.3909 43.1246 63.0757 43.1246H60.1641C59.8062 43.1246 59.4819 43.3358 59.3343 43.6646L58.5352 45.4491C58.4819 45.5679 58.4546 45.6966 58.4546 45.8271V46.4262C58.4546 46.6421 58.5302 46.8512 58.6678 47.0166L61.1525 49.9996C61.3666 50.2566 61.7025 50.3754 62.029 50.3091L65.75 49.5554C65.9054 49.5241 66.0496 49.4525 66.1691 49.3475L67.9839 47.7521C68.0616 47.6837 68.15 47.6296 68.2455 47.5912L69.3951 47.13C69.7133 47.0025 70.0752 47.0654 70.3327 47.2933L72.2484 48.9908C72.4451 49.165 72.5579 49.4162 72.5579 49.6804V51.5358C72.5579 51.8783 72.3691 52.1921 72.0674 52.35L68.6843 54.1237C68.5963 54.17 68.5009 54.2012 68.4029 54.2166L63.4116 54.9908C63.3657 54.9979 63.3195 55.0016 63.2732 55.0016H60.9162C60.5843 55.0016 60.2786 55.1837 60.1186 55.4771L59.4967 56.6175L58.5393 58.4737C58.4835 58.5816 58.4071 58.6775 58.3145 58.7554L57.4525 59.48C57.1835 59.7058 57.0666 60.0658 57.1521 60.4079C57.3009 61.0008 57.5215 61.8733 57.5736 62.0308C57.6298 62.2012 58.0038 63.0921 58.2203 63.605C58.319 63.8387 58.5091 64.0191 58.7459 64.1062L60.55 64.7679C60.8422 64.875 61.06 65.1254 61.1277 65.4312L61.3046 66.2341C61.3277 66.34 61.3323 66.4487 61.3182 66.5562L60.95 69.3021C60.9426 69.3562 60.9405 69.4108 60.9426 69.4654L61.0653 72.28C61.0955 72.9662 61.831 73.3704 62.4269 73.0371C70.3075 68.6258 75.6414 60.1491 75.6414 50.4162C75.6414 43.4475 72.9067 37.1237 68.4612 32.4741C68.2397 32.2429 67.9108 32.15 67.6005 32.2233Z" fill="#6BDDDD"/>
<path d="M44.3039 75.6306L43.8035 74.1173L42.7349 72.7298L41.3349 71.2156C41.1283 70.9923 41.0134 70.6981 41.0134 70.3927V69.0248C41.0134 68.4718 40.6407 67.9893 40.1085 67.8548L39.0324 67.5818C38.937 67.5577 38.8391 67.5456 38.7407 67.5456H37.0341C36.7167 67.5456 36.4122 67.4185 36.1878 67.1923L35.1961 66.1923C35.0262 66.021 34.9118 65.8027 34.8667 65.5648L34.5928 64.1152C34.5382 63.8264 34.3812 63.5681 34.151 63.3877L33.5833 62.9435C33.1283 62.5873 32.4862 62.6085 32.0552 62.9939L32.0543 62.9948C31.6196 63.3835 30.9709 63.4014 30.5159 63.0373L29.6948 62.3798C29.5576 62.2698 29.4461 62.131 29.368 61.9731L28.5143 60.2452C28.3225 59.8573 28.3519 59.3956 28.5911 59.0356L29.3717 57.8606C29.5155 57.6439 29.7254 57.4802 29.9692 57.3935L30.9634 57.0414C31.2502 56.9398 31.4878 56.7323 31.6283 56.4606L32.6919 54.4023L33.8229 52.6539C33.9886 52.3977 34.0519 52.0872 33.9994 51.786L33.7605 50.4168L33.4882 48.2068C33.4502 47.8968 33.5324 47.5839 33.7184 47.3343L34.482 46.3072C34.806 45.8714 35.3791 45.7085 35.8808 45.9097L36.4329 46.1306C36.5734 46.1868 36.7234 46.2156 36.8742 46.2156H39.1031C39.5031 46.2156 39.8767 46.0139 40.0986 45.6785L41.4655 43.611C41.5965 43.4127 41.6663 43.1797 41.6663 42.9418V40.4297C41.6663 40.1322 41.5572 39.8447 41.3601 39.6235L39.4878 37.5218C39.3667 37.386 39.2163 37.2793 39.0486 37.2106L37.1217 36.4202C36.3167 36.0897 35.7903 35.301 35.7903 34.4243V33.1252C35.7903 32.7518 35.6192 32.3997 35.3267 32.1714L34.2118 31.3006C33.7523 30.9414 33.1006 30.9647 32.6725 31.361C27.563 36.0872 24.3589 42.8743 24.3589 50.4168C24.3589 62.7218 32.8841 73.0185 44.3039 75.6306Z" fill="#6BDDDD"/>
<path d="M33.7604 57.6753L36.8493 58.3299C37.0629 58.3753 37.2551 58.492 37.3947 58.6611L38.1034 59.5211C38.2646 59.7165 38.4947 59.8411 38.7456 59.8678L40.6997 60.0774C40.9038 60.0995 41.0956 60.1857 41.2472 60.3249L42.5241 61.492C42.7266 61.677 42.8419 61.9395 42.8419 62.2153V62.2161C42.8419 62.8111 42.3187 63.2678 41.7348 63.182L38.5662 62.7174C38.3931 62.692 38.2299 62.6199 38.0939 62.5082L36.4328 61.1436C36.2923 61.0282 36.1869 60.8753 36.1282 60.7024L35.9076 60.0503C35.7737 59.6553 35.4055 59.3899 34.9914 59.3899H34.1943C33.6596 59.3899 33.2266 58.9528 33.2266 58.414V57.6757H33.7604V57.6753Z" fill="#6BDDDD"/>
<path d="M50.0005 77.1055C35.4063 77.1055 23.5327 65.133 23.5327 50.4168C23.5327 35.7005 35.4063 23.728 50.0005 23.728C64.5947 23.728 76.4683 35.7009 76.4683 50.4168C76.4683 65.1326 64.5947 77.1055 50.0005 77.1055ZM50.0005 25.3947C36.3174 25.3947 25.1856 36.6193 25.1856 50.4168C25.1856 64.2143 36.3174 75.4389 50.0005 75.4389C63.6835 75.4389 74.8154 64.2143 74.8154 50.4168C74.8154 36.6193 63.6835 25.3947 50.0005 25.3947Z" fill="#3762CC"/>
<path d="M49.9997 22.4999C55.9333 22.4999 60.7435 17.6497 60.7435 11.6666C60.7435 5.6835 55.9333 0.833252 49.9997 0.833252C44.066 0.833252 39.2559 5.6835 39.2559 11.6666C39.2559 17.6497 44.066 22.4999 49.9997 22.4999Z" fill="#A4C9FF"/>
<path d="M49.9997 99.9999C55.9333 99.9999 60.7435 95.1497 60.7435 89.1666C60.7435 83.1835 55.9333 78.3333 49.9997 78.3333C44.066 78.3333 39.2559 83.1835 39.2559 89.1666C39.2559 95.1497 44.066 99.9999 49.9997 99.9999Z" fill="#4671C6"/>
<path d="M88.4298 61.2502C94.3635 61.2502 99.1736 56.3999 99.1736 50.4168C99.1736 44.4337 94.3635 39.5835 88.4298 39.5835C82.4962 39.5835 77.686 44.4337 77.686 50.4168C77.686 56.3999 82.4962 61.2502 88.4298 61.2502Z" fill="#F9A7A7"/>
<path d="M11.5705 61.2502C17.5041 61.2502 22.3143 56.3999 22.3143 50.4168C22.3143 44.4337 17.5041 39.5835 11.5705 39.5835C5.63682 39.5835 0.82666 44.4337 0.82666 50.4168C0.82666 56.3999 5.63682 61.2502 11.5705 61.2502Z" fill="#B9BEFC"/>
<path d="M93.3016 57.6585C93.3008 57.6422 93.2995 57.626 93.2983 57.6097C93.2962 57.578 93.2942 57.5464 93.2913 57.5151C93.2896 57.4955 93.2871 57.4764 93.2851 57.4568C93.2822 57.4293 93.2789 57.4014 93.2747 57.3739C93.2719 57.353 93.2685 57.3322 93.2652 57.3114C93.2611 57.286 93.257 57.2605 93.252 57.2355C93.2479 57.2135 93.2438 57.1918 93.2392 57.1701C93.2343 57.1472 93.2293 57.1243 93.2239 57.1014C93.2185 57.078 93.2132 57.0547 93.2074 57.0318C93.2024 57.013 93.1971 56.9947 93.1921 56.976C93.1644 56.8751 93.1318 56.7764 93.0942 56.6797C93.0909 56.6714 93.088 56.6635 93.0851 56.6551C93.0723 56.623 93.059 56.5918 93.0454 56.5605C93.0417 56.5518 93.038 56.543 93.0338 56.5339C93.0194 56.5018 93.0045 56.4705 92.9892 56.4393C92.9859 56.4322 92.9822 56.4251 92.9789 56.4185C92.9623 56.3851 92.9454 56.3526 92.9276 56.3201C92.926 56.3172 92.9243 56.3143 92.9227 56.3114C92.4194 55.3926 91.4669 54.7593 90.3632 54.7139L90.3586 54.7197C90.3582 54.7218 90.3578 54.7239 90.3574 54.726C90.3553 54.7276 90.3528 54.7289 90.3504 54.7301L90.35 54.731H90.3491C89.1454 55.5297 87.5855 55.5285 86.3834 54.726L86.3826 54.7255C86.3826 54.7247 86.3822 54.7243 86.3822 54.7235H86.3793C85.5099 54.8005 84.745 55.2439 84.2359 55.8985H84.2355C84.2334 55.901 84.2318 55.9035 84.2297 55.906C84.2132 55.9276 84.1971 55.9493 84.1809 55.9714C84.171 55.9851 84.1611 55.9985 84.1512 56.0122C84.1359 56.0339 84.121 56.0555 84.1066 56.0776C84.0966 56.0922 84.0867 56.1072 84.0772 56.1222C84.0632 56.1439 84.0495 56.166 84.0359 56.188C84.0264 56.2039 84.0169 56.2197 84.0074 56.2355C83.9946 56.2576 83.9818 56.2793 83.9694 56.3018C83.9603 56.3185 83.9512 56.3355 83.9421 56.3526C83.9305 56.3747 83.9185 56.3968 83.9074 56.4193C83.8983 56.4372 83.89 56.4555 83.8814 56.4739C83.871 56.496 83.8603 56.5176 83.8504 56.5397C83.8409 56.5614 83.8318 56.5835 83.8227 56.6055C83.8082 56.6405 83.7942 56.676 83.7805 56.7114C83.7714 56.7355 83.7619 56.7597 83.7537 56.7843C83.7471 56.8039 83.7409 56.8235 83.7347 56.843C83.7268 56.8668 83.7194 56.8905 83.7119 56.9147C83.7061 56.9347 83.7008 56.9547 83.695 56.9747C83.6884 56.9989 83.6818 57.023 83.6756 57.0476C83.6706 57.0676 83.6661 57.088 83.6611 57.108C83.6553 57.133 83.65 57.158 83.645 57.183C83.6409 57.203 83.6371 57.223 83.6334 57.243C83.6289 57.2693 83.6243 57.2955 83.6202 57.3218C83.6173 57.3414 83.614 57.361 83.6115 57.3805C83.6078 57.4085 83.6045 57.4364 83.6016 57.4643C83.5995 57.483 83.5975 57.5014 83.5958 57.5201C83.5929 57.5514 83.5909 57.5826 83.5892 57.6143C83.5884 57.6301 83.5867 57.6455 83.5863 57.6618C83.5843 57.7093 83.583 57.7568 83.583 57.8047V58.4239H87.771H88.9677H93.3033V57.8047C93.3049 57.7551 93.3037 57.7068 93.3016 57.6585Z" fill="#B9BEFC"/>
<path d="M86.4117 54.806L86.3892 54.7454C86.395 54.7661 86.4025 54.7861 86.4117 54.806Z" fill="#F9CFCF"/>
<path d="M90.3525 54.752L90.3384 54.7897C90.3435 54.7771 90.3486 54.7645 90.3525 54.752Z" fill="#F9CFCF"/>
<path d="M88.3981 53.8589C87.6651 53.8589 86.975 53.6751 86.3696 53.3518V54.6201C86.3696 54.6564 86.3754 54.6918 86.3841 54.7264L86.3849 54.7268C87.5895 55.531 89.1543 55.531 90.3589 54.7268C90.368 54.6914 90.3742 54.6547 90.3742 54.6176V53.3806C89.7812 53.686 89.1097 53.8589 88.3981 53.8589Z" fill="#F9CFCF"/>
<path d="M84.6272 51.1116H84.321C83.6532 51.1116 83.1123 50.5658 83.1123 49.8929V46.5154C83.1123 45.842 83.6536 45.2966 84.321 45.2966H84.6272C85.2949 45.2966 85.8359 45.8425 85.8359 46.5154V49.8929C85.8359 50.5662 85.2945 51.1116 84.6272 51.1116Z" fill="#4671C6"/>
<path d="M92.4011 51.147H92.0949C91.4271 51.147 90.8862 50.6012 90.8862 49.9283V46.5508C90.8862 45.8774 91.4275 45.332 92.0949 45.332H92.4011C93.0689 45.332 93.6098 45.8779 93.6098 46.5508V49.9283C93.6098 50.6012 93.0685 51.147 92.4011 51.147Z" fill="#4671C6"/>
<path d="M92.7432 48.4862C92.7342 48.4862 92.7251 48.4875 92.716 48.4875V48.0737C92.716 45.6541 90.7709 43.6929 88.3713 43.6929C85.9718 43.6929 84.0267 45.6541 84.0267 48.0737V48.4875C84.0176 48.4875 84.0085 48.4862 83.9995 48.4862C83.2676 48.4862 82.6738 49.0845 82.6738 49.8229C82.6738 50.5608 83.2672 51.1595 83.9995 51.1595C84.0474 51.1595 84.0949 51.1566 84.1416 51.1516C84.5899 53.0895 86.3127 54.5337 88.3713 54.5337C90.43 54.5337 92.1528 53.0895 92.6011 51.1516C92.6478 51.1566 92.6953 51.1595 92.7432 51.1595C93.4751 51.1595 94.0689 50.5612 94.0689 49.8229C94.0689 49.0845 93.4751 48.4862 92.7432 48.4862Z" fill="#F9CFCF"/>
<path d="M88.4449 52.4594C87.79 52.4594 87.2573 51.9715 87.2573 51.3719C87.2573 51.2569 87.3499 51.1636 87.4639 51.1636C87.578 51.1636 87.6705 51.2569 87.6705 51.3719C87.6705 51.7419 88.0181 52.0427 88.4449 52.0427C88.8718 52.0427 89.2193 51.7415 89.2193 51.3719C89.2193 51.2569 89.3119 51.1636 89.4259 51.1636C89.54 51.1636 89.6325 51.2569 89.6325 51.3719C89.6325 51.9715 89.0999 52.4594 88.4449 52.4594Z" fill="#3762CC"/>
<path d="M91.2967 47.3919H93.5913C93.7612 47.3919 93.8988 47.2532 93.8988 47.0819V45.3124C93.8988 43.3444 92.3166 41.749 90.3649 41.749H90.2554C89.7463 41.749 89.3335 42.1653 89.3335 42.6786V45.4124C89.3331 46.5053 90.2124 47.3919 91.2967 47.3919Z" fill="#4671C6"/>
<path d="M86.5805 47.3916H82.5821C82.4119 47.3916 82.2734 47.2525 82.2734 47.0804V45.6166C82.2734 43.4804 83.9912 41.7483 86.1098 41.7483H88.4218C88.9305 41.7483 89.3424 42.1641 89.3424 42.6766V44.6062C89.3429 46.1445 88.1061 47.3916 86.5805 47.3916Z" fill="#4671C6"/>
<path d="M86.078 49.9981C85.8342 49.9981 85.6362 49.7985 85.6362 49.5527V48.8102C85.6362 48.5643 85.8342 48.3647 86.078 48.3647C86.3218 48.3647 86.5197 48.5643 86.5197 48.8102V49.5527C86.5201 49.7985 86.3222 49.9981 86.078 49.9981Z" fill="#3762CC"/>
<path d="M90.6649 49.9981C90.4211 49.9981 90.2231 49.7985 90.2231 49.5527V48.8102C90.2231 48.5643 90.4211 48.3647 90.6649 48.3647C90.9087 48.3647 91.1066 48.5643 91.1066 48.8102V49.5527C91.1066 49.7985 90.9091 49.9981 90.6649 49.9981Z" fill="#3762CC"/>
<path d="M54.9774 96.8528C54.9766 96.8365 54.9753 96.8203 54.9741 96.804C54.972 96.7724 54.9699 96.7407 54.9671 96.7095C54.9654 96.6899 54.9629 96.6707 54.9609 96.6511C54.958 96.6236 54.9547 96.5957 54.9505 96.5682C54.9476 96.5474 54.9443 96.5265 54.941 96.5057C54.9369 96.4803 54.9328 96.4549 54.9278 96.4299C54.9237 96.4078 54.9195 96.3861 54.915 96.3644C54.91 96.3415 54.9051 96.3186 54.8997 96.2957C54.8943 96.2724 54.889 96.249 54.8832 96.2261C54.8782 96.2074 54.8728 96.189 54.8679 96.1703C54.8402 96.0695 54.8075 95.9707 54.7699 95.874C54.7666 95.8657 54.7637 95.8578 54.7609 95.8495C54.748 95.8174 54.7348 95.7861 54.7212 95.7549C54.7175 95.7461 54.7137 95.7374 54.7096 95.7282C54.6952 95.6961 54.6803 95.6649 54.665 95.6336C54.6617 95.6265 54.658 95.6194 54.6547 95.6128C54.6381 95.5794 54.6212 95.547 54.6034 95.5145C54.6018 95.5115 54.6001 95.5086 54.5985 95.5057C54.0952 94.587 53.1427 93.9536 52.039 93.9082L52.0344 93.914C52.034 93.9161 52.0336 93.9182 52.0332 93.9203C52.0311 93.9219 52.0286 93.9232 52.0261 93.9245L52.0257 93.9253H52.0249C50.8212 94.724 49.2613 94.7228 48.0592 93.9203L48.0584 93.9199C48.0584 93.919 48.058 93.9186 48.058 93.9178H48.0551C47.1856 93.9949 46.4208 94.4382 45.9117 95.0932H45.9113C45.9092 95.0957 45.9076 95.0982 45.9055 95.1007C45.889 95.1224 45.8728 95.144 45.8567 95.1661C45.8468 95.1799 45.8369 95.1932 45.827 95.2069C45.8117 95.2286 45.7968 95.2503 45.7823 95.2724C45.7724 95.287 45.7625 95.302 45.753 95.317C45.739 95.3386 45.7253 95.3607 45.7117 95.3828C45.7022 95.3986 45.6927 95.4145 45.6832 95.4303C45.6704 95.4524 45.6575 95.474 45.6452 95.4965C45.6361 95.5132 45.627 95.5303 45.6179 95.5474C45.6063 95.5694 45.5943 95.5915 45.5832 95.614C45.5741 95.632 45.5658 95.6503 45.5571 95.6686C45.5468 95.6907 45.5361 95.7124 45.5261 95.7345C45.5166 95.7561 45.5076 95.7782 45.4985 95.8003C45.484 95.8353 45.4699 95.8707 45.4563 95.9061C45.4472 95.9303 45.4377 95.9545 45.4295 95.979C45.4228 95.9986 45.4166 96.0182 45.4104 96.0378C45.4026 96.0615 45.3952 96.0853 45.3877 96.1094C45.3819 96.1294 45.3766 96.1495 45.3708 96.1695C45.3642 96.1936 45.3575 96.2178 45.3514 96.2424C45.3464 96.2624 45.3418 96.2828 45.3369 96.3028C45.3311 96.3278 45.3257 96.3528 45.3208 96.3778C45.3166 96.3978 45.3129 96.4178 45.3092 96.4378C45.3047 96.464 45.3001 96.4903 45.296 96.5165C45.2931 96.5361 45.2898 96.5557 45.2873 96.5753C45.2836 96.6032 45.2803 96.6311 45.2774 96.659C45.2753 96.6778 45.2733 96.6961 45.2716 96.7149C45.2687 96.7461 45.2666 96.7774 45.265 96.809C45.2642 96.8249 45.2625 96.8403 45.2621 96.8565C45.26 96.904 45.2588 96.9515 45.2588 96.9995V97.6186H49.4468H50.6435H54.979V96.9995C54.9807 96.9495 54.9794 96.9011 54.9774 96.8528Z" fill="#A4C9FF"/>
<path d="M48.087 93.9999L48.0645 93.9392C48.0703 93.9604 48.0778 93.9803 48.087 93.9999Z" fill="#F9CFCF"/>
<path d="M52.0278 93.9458L52.0137 93.9835C52.0188 93.971 52.0239 93.9588 52.0278 93.9458Z" fill="#F9CFCF"/>
<path d="M50.0734 93.0525C49.3404 93.0525 48.6503 92.8687 48.0449 92.5454V93.8137C48.0449 93.85 48.0507 93.8854 48.0594 93.92L48.0602 93.9204C49.2648 94.7246 50.8296 94.7246 52.0342 93.9204C52.0433 93.885 52.0495 93.8483 52.0495 93.8112V92.5742C51.4565 92.8796 50.785 93.0525 50.0734 93.0525Z" fill="#F9CFCF"/>
<path d="M46.302 90.3057H45.9958C45.328 90.3057 44.7871 89.7599 44.7871 89.087V85.7095C44.7871 85.0361 45.3284 84.4907 45.9958 84.4907H46.302C46.9698 84.4907 47.5107 85.0366 47.5107 85.7095V89.087C47.5107 89.7599 46.9693 90.3057 46.302 90.3057Z" fill="#EAA97D"/>
<path d="M54.0769 90.3409H53.7707C53.1029 90.3409 52.562 89.7951 52.562 89.1221V85.7446C52.562 85.0713 53.1033 84.5259 53.7707 84.5259H54.0769C54.7447 84.5259 55.2856 85.0717 55.2856 85.7446V89.1221C55.2856 89.7955 54.7447 90.3409 54.0769 90.3409Z" fill="#EAA97D"/>
<path d="M54.419 87.6805C54.4099 87.6805 54.4009 87.6818 54.3918 87.6818V87.268C54.3918 84.8485 52.4467 82.8872 50.0471 82.8872C47.6475 82.8872 45.7025 84.8485 45.7025 87.268V87.6818C45.6934 87.6818 45.6843 87.6805 45.6752 87.6805C44.9434 87.6805 44.3496 88.2789 44.3496 89.0172C44.3496 89.7555 44.943 90.3539 45.6752 90.3539C45.7232 90.3539 45.7707 90.351 45.8174 90.346C46.2657 92.2839 47.9885 93.728 50.0471 93.728C52.1058 93.728 53.8285 92.2839 54.2769 90.346C54.3236 90.351 54.3711 90.3539 54.419 90.3539C55.1509 90.3539 55.7446 89.7555 55.7446 89.0172C55.7446 88.2789 55.1513 87.6805 54.419 87.6805Z" fill="#F9CFCF"/>
<path d="M50.1207 91.6536C49.4662 91.6536 48.9331 91.1657 48.9331 90.5665C48.9331 90.4515 49.0257 90.3582 49.1397 90.3582C49.2538 90.3582 49.3463 90.4515 49.3463 90.5665C49.3463 90.9365 49.6934 91.2369 50.1207 91.2369C50.548 91.2369 50.8951 90.9361 50.8951 90.5665C50.8951 90.4515 50.9877 90.3582 51.1017 90.3582C51.2158 90.3582 51.3083 90.4515 51.3083 90.5665C51.3083 91.1657 50.7753 91.6536 50.1207 91.6536Z" fill="#3762CC"/>
<path d="M52.973 86.5853H55.2676C55.4375 86.5853 55.5751 86.4466 55.5751 86.2753V84.5057C55.5751 82.5378 53.9928 80.9424 52.0412 80.9424H51.9317C51.4226 80.9424 51.0098 81.3586 51.0098 81.872V84.6057C51.0094 85.6991 51.8887 86.5853 52.973 86.5853Z" fill="#EAA97D"/>
<path d="M49.8996 86.5853H44.2988C44.1058 86.5853 43.9492 86.4274 43.9492 86.2328V84.6924C43.9492 82.6211 45.6141 80.9424 47.6682 80.9424H51.9868C52.5633 80.9424 53.0302 81.4136 53.0302 81.9945V83.4282C53.0302 85.172 51.6286 86.5853 49.8996 86.5853Z" fill="#EAA97D"/>
<path d="M47.7537 89.1924C47.5095 89.1924 47.312 88.9928 47.312 88.747V88.0045C47.312 87.7587 47.5099 87.5591 47.7537 87.5591C47.9975 87.5591 48.1955 87.7587 48.1955 88.0045V88.747C48.1959 88.9928 47.998 89.1924 47.7537 89.1924Z" fill="#3762CC"/>
<path d="M52.3407 89.1924C52.0969 89.1924 51.8989 88.9928 51.8989 88.747V88.0045C51.8989 87.7587 52.0969 87.5591 52.3407 87.5591C52.5845 87.5591 52.7824 87.7587 52.7824 88.0045V88.747C52.7824 88.9928 52.5849 89.1924 52.3407 89.1924Z" fill="#3762CC"/>
<path d="M54.8719 19.2395C54.8711 19.2233 54.8698 19.207 54.8686 19.1908C54.8665 19.1591 54.8645 19.1274 54.8616 19.0962C54.8599 19.0766 54.8575 19.0574 54.8554 19.0378C54.8525 19.0103 54.8492 18.9824 54.8451 18.9549C54.8422 18.9341 54.8389 18.9133 54.8355 18.8924C54.8314 18.867 54.8273 18.8416 54.8223 18.8166C54.8182 18.7945 54.8141 18.7728 54.8095 18.7512C54.8046 18.7283 54.7996 18.7053 54.7942 18.6824C54.7889 18.6591 54.7835 18.6358 54.7777 18.6128C54.7727 18.5941 54.7674 18.5758 54.7624 18.557C54.7347 18.4562 54.7021 18.3574 54.6645 18.2608C54.6612 18.2524 54.6583 18.2445 54.6554 18.2362C54.6426 18.2041 54.6294 18.1728 54.6157 18.1416C54.612 18.1328 54.6083 18.1241 54.6041 18.1149C54.5897 18.0828 54.5748 18.0516 54.5595 18.0203C54.5562 18.0133 54.5525 18.0062 54.5492 17.9995C54.5327 17.9662 54.5157 17.9337 54.4979 17.9012C54.4963 17.8983 54.4946 17.8953 54.493 17.8924C53.9897 16.9737 53.0372 16.3403 51.9335 16.2949L51.9289 16.3008C51.9285 16.3028 51.9281 16.3049 51.9277 16.307C51.9256 16.3087 51.9232 16.3099 51.9207 16.3112L51.9203 16.312H51.9194C50.7157 17.1108 49.1558 17.1095 47.9537 16.307L47.9529 16.3066C47.9529 16.3058 47.9525 16.3053 47.9525 16.3045H47.9496C47.0802 16.3816 46.3153 16.8249 45.8062 17.4795H45.8058C45.8037 17.482 45.8021 17.4845 45.8 17.487C45.7835 17.5087 45.7674 17.5303 45.7513 17.5524C45.7413 17.5662 45.7314 17.5795 45.7215 17.5933C45.7062 17.6149 45.6913 17.6366 45.6769 17.6587C45.667 17.6733 45.657 17.6883 45.6475 17.7033C45.6335 17.7249 45.6198 17.747 45.6062 17.7691C45.5967 17.7849 45.5872 17.8008 45.5777 17.8166C45.5649 17.8387 45.5521 17.8603 45.5397 17.8828C45.5306 17.8995 45.5215 17.9166 45.5124 17.9337C45.5008 17.9558 45.4889 17.9778 45.4777 18.0003C45.4686 18.0183 45.4603 18.0366 45.4517 18.0549C45.4413 18.077 45.4306 18.0987 45.4207 18.1208C45.4112 18.1424 45.4021 18.1645 45.393 18.1866C45.3785 18.2216 45.3645 18.257 45.3508 18.2924C45.3417 18.3166 45.3322 18.3408 45.324 18.3653C45.3174 18.3849 45.3112 18.4045 45.305 18.4241C45.2971 18.4478 45.2897 18.4716 45.2822 18.4958C45.2765 18.5158 45.2711 18.5358 45.2653 18.5558C45.2587 18.5799 45.2521 18.6041 45.2459 18.6287C45.2409 18.6487 45.2364 18.6691 45.2314 18.6891C45.2256 18.7141 45.2203 18.7391 45.2153 18.7641C45.2112 18.7841 45.2075 18.8041 45.2037 18.8241C45.1992 18.8503 45.1946 18.8766 45.1905 18.9028C45.1876 18.9224 45.1843 18.942 45.1818 18.9616C45.1781 18.9895 45.1748 19.0174 45.1719 19.0453C45.1698 19.0641 45.1678 19.0824 45.1661 19.1012C45.1632 19.1324 45.1612 19.1637 45.1595 19.1953C45.1587 19.2112 45.157 19.2266 45.1566 19.2428C45.1546 19.2903 45.1533 19.3378 45.1533 19.3858V20.0049H49.3413H50.538H54.8736V19.3858C54.8752 19.3362 54.874 19.2878 54.8719 19.2395Z" fill="#F9A7A7"/>
<path d="M47.9815 16.3868L47.959 16.3262C47.9648 16.347 47.9723 16.3669 47.9815 16.3868Z" fill="#F9CFCF"/>
<path d="M51.9228 16.333L51.9087 16.3708C51.9138 16.3582 51.9189 16.3456 51.9228 16.333Z" fill="#F9CFCF"/>
<path d="M49.968 15.4392C49.2349 15.4392 48.5448 15.2555 47.9395 14.9321V16.2005C47.9395 16.2367 47.9452 16.2721 47.9539 16.3067L47.9547 16.3071C49.1593 17.1113 50.7242 17.1113 51.9287 16.3071C51.9378 16.2717 51.944 16.235 51.944 16.198V14.9609C51.351 15.2667 50.6795 15.4392 49.968 15.4392Z" fill="#F9CFCF"/>
<path d="M46.197 12.6924H45.8908C45.223 12.6924 44.6821 12.1466 44.6821 11.4737V8.09619C44.6821 7.42286 45.2235 6.87744 45.8908 6.87744H46.197C46.8648 6.87744 47.4057 7.42327 47.4057 8.09619V11.4737C47.4057 12.147 46.8644 12.6924 46.197 12.6924Z" fill="#4671C6"/>
<path d="M53.9714 12.7278H53.6652C52.9974 12.7278 52.4565 12.182 52.4565 11.5091V8.13159C52.4565 7.45826 52.9979 6.91284 53.6652 6.91284H53.9714C54.6392 6.91284 55.1801 7.45868 55.1801 8.13159V11.5091C55.1801 12.182 54.6388 12.7278 53.9714 12.7278Z" fill="#4671C6"/>
<path d="M54.3136 10.067C54.3045 10.067 54.2954 10.0683 54.2863 10.0683V9.65452C54.2863 7.23493 52.3412 5.27368 49.9417 5.27368C47.5421 5.27368 45.597 7.23493 45.597 9.65452V10.0683C45.5879 10.0683 45.5789 10.067 45.5698 10.067C44.8379 10.067 44.2441 10.6654 44.2441 11.4037C44.2441 12.142 44.8375 12.7404 45.5698 12.7404C45.6177 12.7404 45.6652 12.7374 45.7119 12.7324C46.1603 14.6704 47.883 16.1145 49.9417 16.1145C52.0003 16.1145 53.7231 14.6704 54.1714 12.7324C54.2181 12.7374 54.2656 12.7404 54.3136 12.7404C55.0454 12.7404 55.6392 12.142 55.6392 11.4037C55.6392 10.6654 55.0454 10.067 54.3136 10.067Z" fill="#F9CFCF"/>
<path d="M50.0152 14.0405C49.3603 14.0405 48.8276 13.5525 48.8276 12.953C48.8276 12.838 48.9202 12.7446 49.0342 12.7446C49.1483 12.7446 49.2409 12.838 49.2409 12.953C49.2409 13.323 49.5884 13.6238 50.0152 13.6238C50.4421 13.6238 50.7896 13.3225 50.7896 12.953C50.7896 12.838 50.8822 12.7446 50.9962 12.7446C51.1103 12.7446 51.2028 12.838 51.2028 12.953C51.2028 13.5525 50.6702 14.0405 50.0152 14.0405Z" fill="#3762CC"/>
<path d="M52.5563 8.97219H55.1617C55.3315 8.97219 55.4691 8.83344 55.4691 8.66219V5.82886C55.4691 4.44802 54.3592 3.32886 52.9898 3.32886H51.9352C51.3654 3.32886 50.9038 3.79469 50.9038 4.36886V7.30511C50.9034 8.22636 51.6435 8.97219 52.5563 8.97219Z" fill="#4671C6"/>
<path d="M49.2594 3.3291H43.8433V7.30535C43.8433 8.22577 44.5833 8.97202 45.4962 8.97202H49.2594C50.1722 8.97202 50.9123 8.22577 50.9123 7.30535V4.99577C50.9123 4.07535 50.1722 3.3291 49.2594 3.3291Z" fill="#4671C6"/>
<path d="M47.6483 11.5791C47.4041 11.5791 47.2065 11.3796 47.2065 11.1337V10.3912C47.2065 10.145 47.4045 9.9458 47.6483 9.9458C47.8921 9.9458 48.09 10.1454 48.09 10.3912V11.1337C48.0904 11.3796 47.8925 11.5791 47.6483 11.5791Z" fill="#3762CC"/>
<path d="M52.2357 11.5791C51.9919 11.5791 51.7939 11.3796 51.7939 11.1337V10.3912C51.7939 10.145 51.9919 9.9458 52.2357 9.9458C52.4795 9.9458 52.6774 10.1454 52.6774 10.3912V11.1337C52.6774 11.3796 52.4799 11.5791 52.2357 11.5791Z" fill="#3762CC"/>
<path d="M16.2676 57.7468C16.2668 57.7306 16.2656 57.7143 16.2643 57.6981C16.2623 57.6664 16.2602 57.6348 16.2573 57.6035C16.2557 57.5839 16.2532 57.5648 16.2511 57.5452C16.2482 57.5177 16.2449 57.4897 16.2408 57.4622C16.2379 57.4414 16.2346 57.4206 16.2313 57.3998C16.2272 57.3743 16.223 57.3489 16.2181 57.3239C16.2139 57.3018 16.2098 57.2802 16.2053 57.2585C16.2003 57.2356 16.1953 57.2127 16.19 57.1898C16.1846 57.1664 16.1792 57.1431 16.1734 57.1202C16.1685 57.1014 16.1631 57.0831 16.1581 57.0643C16.1305 56.9635 16.0978 56.8647 16.0602 56.7681C16.0569 56.7597 16.054 56.7518 16.0511 56.7435C16.0383 56.7114 16.0251 56.6802 16.0115 56.6489C16.0077 56.6402 16.004 56.6314 15.9999 56.6223C15.9854 56.5902 15.9705 56.5589 15.9553 56.5277C15.9519 56.5206 15.9482 56.5135 15.9449 56.5068C15.9284 56.4735 15.9115 56.441 15.8937 56.4085C15.892 56.4056 15.8904 56.4027 15.8887 56.3997C15.3854 55.481 14.4329 54.8477 13.3292 54.8022L13.3247 54.8081C13.3243 54.8102 13.3238 54.8122 13.3234 54.8143C13.3214 54.816 13.3189 54.8172 13.3164 54.8185L13.316 54.8193H13.3152C12.1115 55.6181 10.5515 55.6168 9.34947 54.8143L9.34864 54.8139C9.34864 54.8131 9.34823 54.8127 9.34823 54.8118H9.34533C8.47591 54.8889 7.71104 55.3322 7.20195 55.9868H7.20277C7.20071 55.9893 7.19905 55.9918 7.19699 55.9943C7.18046 56.016 7.16434 56.0377 7.14823 56.0597C7.13831 56.0735 7.12839 56.0868 7.11847 56.1006C7.10319 56.1223 7.08831 56.1439 7.07385 56.166C7.06393 56.1806 7.05401 56.1956 7.04451 56.2106C7.03046 56.2322 7.01682 56.2543 7.00319 56.2764C6.99368 56.2923 6.98418 56.3081 6.97467 56.3239C6.96186 56.346 6.94905 56.3677 6.93666 56.3902C6.92757 56.4068 6.91847 56.4239 6.90938 56.441C6.89781 56.4631 6.88583 56.4852 6.87467 56.5077C6.86558 56.5256 6.85732 56.5439 6.84864 56.5622C6.83831 56.5843 6.82757 56.606 6.81765 56.6281C6.80814 56.6497 6.79905 56.6718 6.78996 56.6939C6.7755 56.7289 6.76145 56.7643 6.74781 56.7997C6.73872 56.8239 6.72922 56.8481 6.72095 56.8727C6.71434 56.8923 6.70814 56.9118 6.70195 56.9314C6.69409 56.9552 6.68666 56.9789 6.67922 57.0031C6.67343 57.0231 6.66806 57.0431 6.66228 57.0631C6.65566 57.0873 6.64905 57.1114 6.64286 57.136C6.6379 57.156 6.63335 57.1764 6.62839 57.1964C6.62261 57.2214 6.61723 57.2464 6.61228 57.2714C6.60814 57.2914 6.60443 57.3114 6.60071 57.3314C6.59616 57.3577 6.59162 57.3839 6.58748 57.4102C6.58459 57.4297 6.58128 57.4493 6.57881 57.4689C6.57509 57.4968 6.57178 57.5248 6.56889 57.5527C6.56682 57.5714 6.56476 57.5897 6.5631 57.6085C6.56021 57.6397 6.55814 57.671 6.55649 57.7027C6.55566 57.7185 6.55401 57.7339 6.5536 57.7502C6.55153 57.7977 6.55029 57.8452 6.55029 57.8931V58.5123H10.7383H11.935H16.2705V57.8931C16.2714 57.8431 16.2701 57.7947 16.2676 57.7468Z" fill="#E0EBFC"/>
<path d="M9.37751 54.8934L9.35498 54.8328C9.36124 54.8535 9.36875 54.8739 9.37751 54.8934Z" fill="#F9CFCF"/>
<path d="M13.3183 54.8396L13.3042 54.8773C13.3093 54.8648 13.3144 54.8522 13.3183 54.8396Z" fill="#F9CFCF"/>
<path d="M11.364 53.946C10.6309 53.946 9.94082 53.7623 9.33545 53.439V54.7073C9.33545 54.7436 9.34123 54.779 9.34991 54.8135L9.35074 54.814C10.5553 55.6181 12.1202 55.6181 13.3247 54.814C13.3338 54.7785 13.34 54.7419 13.34 54.7048V53.4677C12.747 53.7731 12.0759 53.946 11.364 53.946Z" fill="#F9CFCF"/>
<path d="M7.59202 51.1993H7.28583C6.61806 51.1993 6.07715 50.6534 6.07715 49.9805V46.603C6.07715 45.9297 6.61847 45.3843 7.28583 45.3843H7.59202C8.25979 45.3843 8.8007 45.9301 8.8007 46.603V49.9805C8.80112 50.6539 8.25979 51.1993 7.59202 51.1993Z" fill="#4671C6"/>
<path d="M15.3674 51.2344H15.0612C14.3934 51.2344 13.8525 50.6886 13.8525 50.0157V46.6382C13.8525 45.9648 14.3939 45.4194 15.0612 45.4194H15.3674C16.0352 45.4194 16.5761 45.9653 16.5761 46.6382V50.0157C16.5761 50.6886 16.0348 51.2344 15.3674 51.2344Z" fill="#4671C6"/>
<path d="M15.7091 48.5739C15.7 48.5739 15.6909 48.5751 15.6818 48.5751V48.1614C15.6818 45.7418 13.7368 43.7805 11.3372 43.7805C8.93758 43.7805 6.99254 45.7418 6.99254 48.1614V48.5751C6.98345 48.5751 6.97436 48.5739 6.96527 48.5739C6.23345 48.5739 5.63965 49.1722 5.63965 49.9105C5.63965 50.6489 6.23304 51.2472 6.96527 51.2472C7.0132 51.2472 7.06072 51.2443 7.10742 51.2393C7.55576 53.1772 9.27849 54.6214 11.3372 54.6214C13.3958 54.6214 15.1186 53.1772 15.5669 51.2393C15.6136 51.2443 15.6611 51.2472 15.7091 51.2472C16.4409 51.2472 17.0347 50.6489 17.0347 49.9105C17.0343 49.1722 16.4409 48.5739 15.7091 48.5739Z" fill="#F9CFCF"/>
<path d="M11.4117 52.5471C10.7572 52.5471 10.2241 52.0592 10.2241 51.46C10.2241 51.345 10.3167 51.2517 10.4307 51.2517C10.5448 51.2517 10.6373 51.345 10.6373 51.46C10.6373 51.83 10.9845 52.1305 11.4117 52.1305C11.839 52.1305 12.1861 51.8296 12.1861 51.46C12.1861 51.345 12.2787 51.2517 12.3927 51.2517C12.5068 51.2517 12.5993 51.345 12.5993 51.46C12.5989 52.0592 12.0663 52.5471 11.4117 52.5471Z" fill="#3762CC"/>
<path d="M14.2635 47.4791H16.5581C16.728 47.4791 16.8656 47.3404 16.8656 47.1691V45.3995C16.8656 43.4316 15.2834 41.8362 13.3317 41.8362H13.2222C12.7131 41.8362 12.3003 42.2524 12.3003 42.7658V45.4995C12.2999 46.5929 13.1792 47.4791 14.2635 47.4791Z" fill="#4671C6"/>
<path d="M9.54628 47.4793H5.54794C5.37769 47.4793 5.23926 47.3401 5.23926 47.168V45.7043C5.23926 43.568 6.95703 41.8359 9.07562 41.8359H11.3876C11.8963 41.8359 12.3083 42.2518 12.3083 42.7643V44.6939C12.3087 46.2322 11.0719 47.4793 9.54628 47.4793Z" fill="#4671C6"/>
<path d="M9.04379 50.086C8.79957 50.086 8.60205 49.8864 8.60205 49.6406V48.8981C8.60205 48.6522 8.79998 48.4526 9.04379 48.4526C9.288 48.4526 9.48552 48.6522 9.48552 48.8981V49.6406C9.48552 49.8868 9.288 50.086 9.04379 50.086Z" fill="#3762CC"/>
<path d="M13.6307 50.086C13.3865 50.086 13.189 49.8864 13.189 49.6406V48.8981C13.189 48.6522 13.3869 48.4526 13.6307 48.4526C13.8745 48.4526 14.0724 48.6522 14.0724 48.8981V49.6406C14.0724 49.8868 13.8745 50.086 13.6307 50.086Z" fill="#3762CC"/>
<path d="M9.08535 51.2664C8.07419 51.2664 7.25146 50.4373 7.25146 49.4173C7.25146 48.3973 8.07419 47.5681 9.08535 47.5681C10.0965 47.5681 10.9192 48.3973 10.9192 49.4173C10.9192 50.4373 10.0965 51.2664 9.08535 51.2664ZM9.08535 47.9852C8.30188 47.9852 7.66469 48.6277 7.66469 49.4177C7.66469 50.2077 8.30188 50.8502 9.08535 50.8502C9.86882 50.8502 10.506 50.2077 10.506 49.4177C10.506 48.6277 9.86841 47.9852 9.08535 47.9852Z" fill="#3762CC"/>
<path d="M13.6312 51.2664C12.6201 51.2664 11.7974 50.4373 11.7974 49.4173C11.7974 48.3973 12.6201 47.5681 13.6312 47.5681C14.6424 47.5681 15.4651 48.3973 15.4651 49.4173C15.4651 50.4373 14.6424 51.2664 13.6312 51.2664ZM13.6312 47.9852C12.8478 47.9852 12.2106 48.6277 12.2106 49.4177C12.2106 50.2077 12.8478 50.8502 13.6312 50.8502C14.4147 50.8502 15.0519 50.2077 15.0519 49.4177C15.0519 48.6277 14.4143 47.9852 13.6312 47.9852Z" fill="#3762CC"/>
<path d="M12.0037 49.6267H10.712C10.5979 49.6267 10.5054 49.5332 10.5054 49.4181C10.5054 49.3029 10.5979 49.2095 10.712 49.2095H12.0037C12.1178 49.2095 12.2103 49.3029 12.2103 49.4181C12.2103 49.5332 12.1182 49.6267 12.0037 49.6267Z" fill="#3762CC"/>
<path d="M49.9999 23.3333C43.6202 23.3333 38.4297 18.0996 38.4297 11.6667C38.4297 5.23375 43.6202 0 49.9999 0C56.3797 0 61.5702 5.23375 61.5702 11.6667C61.5702 18.0996 56.3797 23.3333 49.9999 23.3333ZM49.9999 1.66667C44.5313 1.66667 40.0826 6.15292 40.0826 11.6667C40.0826 17.1804 44.5313 21.6667 49.9999 21.6667C55.4685 21.6667 59.9173 17.1804 59.9173 11.6667C59.9173 6.15292 55.4685 1.66667 49.9999 1.66667Z" fill="#3762CC"/>
<path d="M88.4296 62.0833C82.0499 62.0833 76.8594 56.8496 76.8594 50.4167C76.8594 43.9838 82.0499 38.75 88.4296 38.75C94.8094 38.75 99.9999 43.9838 99.9999 50.4167C99.9999 56.8496 94.8094 62.0833 88.4296 62.0833ZM88.4296 40.4167C82.961 40.4167 78.5123 44.9029 78.5123 50.4167C78.5123 55.9304 82.961 60.4167 88.4296 60.4167C93.8982 60.4167 98.347 55.9304 98.347 50.4167C98.347 44.9029 93.8982 40.4167 88.4296 40.4167Z" fill="#3762CC"/>
<path d="M11.5702 62.0833C5.1905 62.0833 0 56.8496 0 50.4167C0 43.9838 5.1905 38.75 11.5702 38.75C17.95 38.75 23.1405 43.9838 23.1405 50.4167C23.1405 56.8496 17.95 62.0833 11.5702 62.0833ZM11.5702 40.4167C6.10165 40.4167 1.65289 44.9029 1.65289 50.4167C1.65289 55.9304 6.10165 60.4167 11.5702 60.4167C17.0388 60.4167 21.4876 55.9304 21.4876 50.4167C21.4876 44.9029 17.0388 40.4167 11.5702 40.4167Z" fill="#3762CC"/>
<path d="M86.041 26.9647C84.9646 26.7118 83.8906 27.3864 83.6414 28.4709L83.3728 29.6426C82.2175 27.6022 81.1237 26.0676 80.8799 25.7314C78.2257 21.5493 71.3175 16.238 71.0233 16.013C70.9964 15.9922 70.9687 15.9722 70.941 15.953C66.6447 12.9984 62.3873 11.4422 60.7142 10.8984C60.7311 11.1526 60.7435 11.408 60.7435 11.6668C60.7435 12.8264 60.5609 13.9426 60.2266 14.9901C62.0022 15.6239 65.3386 16.9868 68.6485 19.2547C70.5361 20.7043 75.6927 24.9951 77.5381 27.9434C77.5646 27.9859 77.5935 28.0284 77.6233 28.0689C77.641 28.0934 78.6195 29.4334 79.6952 31.2839L78.41 30.5889C77.4361 30.0622 76.2241 30.4309 75.7034 31.4118C75.1828 32.3926 75.5501 33.6155 76.5241 34.1422L83.0493 37.6705C83.0576 37.6751 83.0658 37.6785 83.0741 37.6826C83.1034 37.698 83.1332 37.7122 83.1633 37.726C83.1852 37.736 83.2067 37.7464 83.229 37.7555C83.2563 37.7668 83.284 37.7772 83.3121 37.7872C83.3377 37.7964 83.3629 37.8064 83.389 37.8143C83.4125 37.8222 83.4365 37.8285 83.4605 37.8351C83.4906 37.8439 83.5212 37.8526 83.5518 37.8597C83.5712 37.8643 83.591 37.8676 83.6109 37.8714C83.646 37.8785 83.6811 37.8851 83.7166 37.8901C83.7332 37.8926 83.7501 37.8939 83.7666 37.8955C83.8055 37.9001 83.8439 37.9043 83.8824 37.9064C83.8981 37.9072 83.9142 37.9072 83.9299 37.9076C83.9695 37.9089 84.0088 37.9097 84.0481 37.9089C84.0522 37.9089 84.0559 37.9089 84.06 37.9089C84.0695 37.9085 84.079 37.9068 84.0885 37.9064C84.1385 37.9039 84.1885 37.8997 84.2381 37.8939C84.2584 37.8914 84.2786 37.8885 84.2989 37.8851C84.3414 37.8785 84.384 37.8701 84.4261 37.861C84.4468 37.8564 84.4675 37.8522 84.4877 37.8468C84.5381 37.8339 84.5877 37.8189 84.6369 37.8022C84.6464 37.7993 84.6559 37.7968 84.6654 37.7935C84.7228 37.773 84.7795 37.7493 84.8348 37.7235C84.8505 37.716 84.8658 37.7076 84.8815 37.6997C84.9224 37.6793 84.9629 37.6576 85.0026 37.6343C85.0179 37.6251 85.0332 37.6159 85.0485 37.6064C85.0885 37.5814 85.1278 37.5547 85.1666 37.5268C85.1786 37.518 85.1906 37.5097 85.2022 37.5005C85.2464 37.4668 85.289 37.431 85.3307 37.3939C85.3357 37.3893 85.3406 37.3851 85.3456 37.3809C85.3927 37.3376 85.4381 37.2922 85.4815 37.2439C85.5357 37.183 85.5861 37.1185 85.6332 37.0501C85.6522 37.023 85.6675 36.9935 85.6848 36.9651C85.7092 36.926 85.7348 36.8885 85.7567 36.8472C85.758 36.8451 85.7588 36.8422 85.76 36.8397C85.7687 36.823 85.7757 36.8051 85.784 36.788C85.8105 36.7339 85.8352 36.6793 85.8563 36.6239C85.865 36.6014 85.8724 36.5785 85.8803 36.5555C85.8997 36.4997 85.9162 36.443 85.9303 36.3868C85.9332 36.3747 85.9381 36.363 85.941 36.3509L87.5394 29.3859C87.7877 28.3018 87.1171 27.2176 86.041 26.9647Z" fill="#FFEA92"/>
<path d="M84.0065 38.742C83.9722 38.742 83.9375 38.7415 83.9032 38.7403L83.8383 38.7378C83.7899 38.7353 83.7424 38.7307 83.6949 38.7257L83.5965 38.7145C83.5622 38.7095 83.5218 38.7024 83.4813 38.6945L83.5862 37.8665L83.4333 38.6857C83.4226 38.6836 83.3759 38.674 83.3656 38.6715C83.3292 38.6632 83.2891 38.6524 83.249 38.6411L83.1337 38.6074C83.1069 38.5986 83.0751 38.5874 83.0432 38.5757C82.9895 38.5561 82.9499 38.5415 82.911 38.5253L82.8147 38.482C82.778 38.4653 82.737 38.4457 82.697 38.4249C82.6891 38.4211 82.6573 38.4049 82.6499 38.4003L76.1325 34.8765C74.7589 34.1336 74.2391 32.4024 74.9738 31.0186C75.33 30.3474 75.9242 29.8569 76.647 29.6369C76.9664 29.5403 77.2928 29.5003 77.6172 29.5186C77.2342 28.9444 76.9775 28.5907 76.9573 28.5632C76.9172 28.5086 76.8751 28.4469 76.8366 28.3844C75.0676 25.5586 69.9953 21.3386 68.1651 19.9315C64.9135 17.7065 61.6238 16.3732 59.9507 15.7757C59.5292 15.6253 59.3027 15.1636 59.4399 14.7344C59.756 13.7424 59.9168 12.7107 59.9168 11.6665C59.9168 11.4278 59.9052 11.1911 59.8891 10.9569C59.8697 10.6811 59.9879 10.4132 60.2036 10.2424C60.4193 10.0719 60.7056 10.0194 60.9668 10.1053C62.6404 10.649 67.0077 12.2399 71.4061 15.2644C71.4441 15.2907 71.4842 15.3194 71.5234 15.3494C71.8193 15.5761 78.8156 20.9528 81.5614 25.2599C81.7879 25.5728 82.3784 26.4069 83.1023 27.5686C83.3321 27.139 83.6701 26.7749 84.092 26.5094C84.7329 26.1065 85.4916 25.9803 86.2275 26.1528C86.2275 26.1528 86.2275 26.1528 86.2275 26.1532C87.7449 26.5099 88.6941 28.0444 88.3432 29.574L86.7449 36.539C86.7391 36.5628 86.7275 36.6053 86.7197 36.6286C86.7106 36.6711 86.6866 36.7503 86.6594 36.8299L86.6263 36.9232C86.5953 37.0044 86.5598 37.0832 86.5218 37.1607C86.5168 37.1719 86.5098 37.1878 86.5011 37.2049C86.4912 37.2265 86.4796 37.2482 86.4685 37.267C86.4573 37.2895 86.4284 37.3361 86.399 37.3824L85.6784 36.9724L86.3755 37.4207C86.3536 37.4582 86.3313 37.4949 86.3065 37.5299C86.242 37.6232 86.1705 37.7145 86.0937 37.8003C86.0337 37.8678 85.9693 37.9319 85.9023 37.994C85.8209 38.0674 85.761 38.1174 85.699 38.1645C85.6928 38.1695 85.6676 38.1882 85.6614 38.1924C85.5916 38.2428 85.5379 38.279 85.4833 38.3132L85.4102 38.357C85.3631 38.3853 85.3036 38.4174 85.2428 38.4474L85.1945 38.472C85.099 38.5161 85.0209 38.5495 84.9416 38.5778C84.9238 38.5845 84.8866 38.5961 84.8684 38.6015C84.8275 38.6157 84.7565 38.6374 84.6846 38.6557C84.6775 38.6574 84.6329 38.6678 84.6259 38.6695C84.5391 38.6882 84.4837 38.6986 84.428 38.7078L84.3337 38.7211C84.2668 38.7295 84.1966 38.7349 84.1263 38.7386C84.1106 38.739 84.0622 38.742 84.0437 38.742C84.0321 38.742 84.0193 38.742 84.0065 38.742ZM77.4647 31.1815C77.3511 31.1815 77.2366 31.1982 77.1246 31.2324C76.8251 31.3236 76.5788 31.5265 76.4313 31.8044C76.1263 32.3794 76.3428 33.0982 76.9139 33.4074L83.637 37.0199C83.6399 37.0203 83.6837 37.0328 83.6866 37.0336L83.7321 37.0461C83.7362 37.047 83.7709 37.0536 83.7751 37.0545L83.8275 37.064L83.7651 37.8953L83.8693 37.0686L83.9713 37.0757C83.9767 37.0757 83.9986 37.0753 84.0218 37.0757C84.0275 37.0757 84.0337 37.0753 84.0399 37.0753C84.0837 37.0724 84.1106 37.0699 84.1375 37.0665L84.2784 37.8882L84.1837 37.0603C84.197 37.0578 84.2263 37.052 84.2552 37.0461C84.3168 37.0315 84.3449 37.022 84.373 37.0128C84.3858 37.0082 84.4085 37.0015 84.4218 36.9978C84.4218 36.9965 84.4565 36.9815 84.4908 36.9657C84.5383 36.9411 84.5598 36.9299 84.5804 36.9178L85.0399 37.6115L84.6193 36.894C84.6362 36.8836 84.6614 36.8661 84.6858 36.8486C84.728 36.8169 84.754 36.7953 84.7788 36.7728C84.8123 36.7424 84.8391 36.7161 84.8643 36.6882C84.897 36.6515 84.9263 36.6136 84.9536 36.5744C84.9577 36.5669 84.98 36.5286 84.9846 36.5215L85.0089 36.4828C85.0114 36.4778 85.0189 36.4653 85.0263 36.4536C85.0313 36.4424 85.0379 36.4278 85.0403 36.4232C85.0585 36.3861 85.0726 36.3557 85.0846 36.3249C85.085 36.324 85.0986 36.2836 85.099 36.2828C85.1102 36.2503 85.1201 36.2174 85.1284 36.1845C85.1313 36.1732 85.1362 36.1553 85.1412 36.1395L86.7337 29.199C86.8796 28.564 86.4846 27.9257 85.8536 27.7774C85.5478 27.7049 85.2329 27.7578 84.9672 27.9249C84.7019 28.0911 84.5172 28.3524 84.447 28.6594L84.1784 29.8315C84.1015 30.1657 83.8296 30.4182 83.4932 30.4678C83.1548 30.5186 82.8242 30.3549 82.6556 30.0565C81.5135 28.039 80.4205 26.5103 80.2131 26.2244C80.2032 26.2107 80.1932 26.1965 80.1842 26.1815C77.6052 22.1182 70.8118 16.8982 70.5242 16.6778L70.478 16.644C67.0151 14.2628 63.5746 12.8082 61.5635 12.0736C61.5358 12.8849 61.4246 13.6886 61.2313 14.4749C63.111 15.1928 66.1263 16.5194 69.1131 18.5661C69.1255 18.5749 69.1375 18.5832 69.149 18.5924C69.2168 18.644 75.9383 23.8269 78.237 27.499C78.2536 27.5257 78.2693 27.5486 78.2854 27.5703C78.3957 27.7215 79.3515 29.0449 80.4081 30.8624C80.5953 31.1844 80.547 31.5932 80.2903 31.8615C80.0333 32.1307 79.6304 32.1949 79.3044 32.0182L78.0193 31.3232C77.8453 31.229 77.6561 31.1815 77.4647 31.1815Z" fill="#3762CC"/>
<path d="M39.2566 89.1666C39.2566 87.9941 39.4438 86.8662 39.7856 85.8087C37.9852 85.1674 34.705 83.827 31.4455 81.6116C29.5509 80.1674 24.3761 75.8928 22.5228 72.957C22.4959 72.9145 22.467 72.872 22.4372 72.832C22.4186 72.8066 21.3401 71.3412 20.198 69.3574L21.5017 70.0087C22.3244 70.4199 23.2918 70.2078 23.8761 69.552C23.9951 69.4187 24.098 69.2666 24.1806 69.0978C24.6699 68.0999 24.2633 66.8903 23.2728 66.3953L16.9244 63.2249C16.924 63.2245 16.9236 63.2245 16.9232 63.2241C16.8674 63.1966 16.8104 63.172 16.7521 63.1491C16.7331 63.1416 16.7141 63.1357 16.6951 63.1291C16.6566 63.1153 16.6178 63.1028 16.5785 63.0916C16.5542 63.0845 16.5298 63.0782 16.5054 63.0724C16.4715 63.0641 16.4368 63.057 16.4025 63.0503C16.3757 63.0453 16.3492 63.0403 16.3224 63.0362C16.2897 63.0312 16.2566 63.0282 16.2236 63.0253C16.1959 63.0228 16.1682 63.0191 16.1405 63.0174C16.1038 63.0157 16.0666 63.0162 16.0298 63.0162C15.9876 63.0162 15.9455 63.0178 15.9033 63.0207C15.8641 63.0232 15.8248 63.0262 15.786 63.0307C15.7628 63.0337 15.7401 63.0382 15.717 63.042C15.6794 63.0482 15.6422 63.0545 15.6054 63.0628C15.5831 63.0678 15.5608 63.0737 15.5385 63.0799C15.5017 63.0891 15.4653 63.0995 15.4298 63.1112C15.4079 63.1182 15.386 63.1257 15.3641 63.1337C15.329 63.1466 15.2943 63.1599 15.26 63.1749C15.2385 63.1841 15.2166 63.1928 15.1955 63.2032C15.162 63.2191 15.1294 63.2362 15.0967 63.2537C15.0761 63.2645 15.055 63.2753 15.0343 63.287C14.9971 63.3087 14.9612 63.3324 14.9257 63.3566C14.8909 63.3799 14.8575 63.4049 14.824 63.4303C14.8005 63.4487 14.7761 63.4666 14.7533 63.4862C14.7294 63.5062 14.7066 63.5278 14.6835 63.5491C14.6624 63.5687 14.6418 63.5882 14.6215 63.6087C14.6 63.6303 14.5794 63.6524 14.5591 63.6753C14.5376 63.6995 14.5166 63.7241 14.4959 63.7495C14.479 63.7699 14.462 63.7907 14.4459 63.812C14.417 63.8503 14.3901 63.8899 14.3637 63.9303C14.3571 63.9403 14.3496 63.9499 14.3434 63.9603C14.31 64.0145 14.279 64.0707 14.2505 64.1282C14.2492 64.1307 14.2476 64.1332 14.2459 64.1362C14.2414 64.1449 14.2385 64.1545 14.2343 64.1632C14.2133 64.2078 14.1934 64.2532 14.1757 64.2999C14.1674 64.3212 14.1604 64.342 14.1529 64.3632C14.1405 64.3991 14.129 64.4353 14.1186 64.4724C14.1108 64.4991 14.1033 64.5257 14.0971 64.5528C14.0947 64.5624 14.0918 64.572 14.0893 64.582L12.5174 71.5532C12.2728 72.6387 12.9476 73.7203 14.0244 73.9687C15.1013 74.2174 16.1732 73.5387 16.4178 72.4532L16.6823 71.2812C17.8451 73.317 18.9443 74.8466 19.1901 75.1824C21.86 79.3541 28.7885 84.6391 29.0835 84.8628C29.1104 84.8833 29.1381 84.9032 29.1662 84.9224C33.3699 87.7895 37.529 89.3241 39.2843 89.8962C39.2678 89.6541 39.2566 89.4116 39.2566 89.1666Z" fill="#FFEA92"/>
<path d="M39.283 90.7289C39.1978 90.7289 39.1119 90.7156 39.0288 90.6885C37.3689 90.1477 33.0396 88.571 28.7016 85.6118C28.6578 85.5814 28.621 85.5552 28.5854 85.5285C28.2867 85.3014 21.2644 79.9427 18.5082 75.6552C18.3301 75.4114 17.7168 74.5568 16.9586 73.3523C16.7301 73.7831 16.3933 74.1489 15.9718 74.4164C15.3321 74.821 14.5743 74.9506 13.8383 74.7806C12.3193 74.4306 11.3644 72.8997 11.7098 71.3685L13.2817 64.3977C13.2846 64.3843 13.2925 64.3535 13.2962 64.3397C13.3011 64.3185 13.3119 64.2797 13.3226 64.2418C13.3375 64.1902 13.3532 64.1397 13.3706 64.0893L13.4024 64.0014C13.4288 63.9322 13.4573 63.8664 13.4879 63.8018C13.4962 63.7814 13.4954 63.7831 13.5049 63.7635C13.5082 63.7564 13.5123 63.7489 13.5164 63.741C13.5544 63.6647 13.5958 63.591 13.64 63.5193C13.6487 63.5056 13.6693 63.4743 13.6784 63.461C13.704 63.4202 13.7429 63.3643 13.7838 63.3097C13.804 63.2827 13.8251 63.2564 13.8466 63.2306C13.8842 63.1843 13.9139 63.1497 13.9441 63.1156C13.9747 63.0818 14.004 63.0506 14.0346 63.0202C14.0623 62.9922 14.0916 62.9647 14.1206 62.9377C14.1549 62.9056 14.1863 62.8768 14.2193 62.8485C14.2503 62.8227 14.2788 62.8006 14.3078 62.7785C14.3656 62.7339 14.4119 62.7002 14.4594 62.6672C14.5173 62.6289 14.5644 62.5981 14.6135 62.5693L14.6978 62.5231C14.7491 62.4956 14.7982 62.4697 14.8491 62.4464L14.9185 62.4156C14.9842 62.3877 15.0338 62.3681 15.0842 62.3502L15.1681 62.321C15.2301 62.3014 15.2809 62.2872 15.3325 62.2739L15.4148 62.2531C15.4805 62.2385 15.5359 62.2285 15.5916 62.2202C15.6164 62.2152 15.6495 62.2097 15.683 62.2056C15.7297 62.1997 15.778 62.196 15.8276 62.1927C15.9226 62.186 15.9995 62.1839 16.0644 62.1847C16.1115 62.1847 16.1478 62.1852 16.1838 62.1872L16.2759 62.1952C16.3578 62.2035 16.3999 62.2077 16.4416 62.2139C16.4735 62.2185 16.5156 62.226 16.5578 62.2343C16.6032 62.2431 16.6536 62.2535 16.7036 62.2656L16.79 62.2881C16.8586 62.3081 16.9111 62.3256 16.9635 62.3435L17.0462 62.3727C17.1305 62.406 17.2098 62.4402 17.2871 62.4785L23.6383 65.6506C25.035 66.3485 25.6098 68.0614 24.9201 69.4689C24.8053 69.7031 24.6606 69.9185 24.4896 70.1106C23.902 70.7702 23.052 71.101 22.2111 71.0468C22.7321 71.8381 23.0916 72.326 23.0978 72.3347C23.1396 72.391 23.1813 72.4514 23.2197 72.5127C24.997 75.3281 30.0879 79.5323 31.9247 80.9348C35.1433 83.1185 38.402 84.4343 40.0598 85.0248C40.483 85.1752 40.7094 85.6389 40.5701 86.0689C40.2466 87.0693 40.0825 88.1123 40.0825 89.1668C40.0825 89.3931 40.0929 89.6173 40.1077 89.8402C40.1259 90.1156 40.0073 90.3827 39.7912 90.5527C39.6441 90.6685 39.4648 90.7289 39.283 90.7289ZM16.6813 70.4472C16.9739 70.4472 17.2482 70.6039 17.3974 70.8647C18.5491 72.8814 19.6454 74.4023 19.8536 74.6868C19.864 74.7006 19.8735 74.7152 19.883 74.7302C22.4714 78.7748 29.2904 83.9777 29.5792 84.1973L29.6342 84.2368C33.0392 86.5589 36.4433 87.9948 38.4379 88.7227C38.4685 87.9127 38.5825 87.1102 38.778 86.3256C36.9152 85.6156 33.9342 84.3089 30.983 82.3031C30.9706 82.2948 30.9582 82.286 30.9466 82.2768C30.8788 82.2252 24.1334 77.061 21.8251 73.4052C21.8086 73.3789 21.7925 73.3552 21.7755 73.3327C21.7648 73.3181 20.6565 71.8152 19.4825 69.7764C19.2995 69.4585 19.3449 69.0568 19.5941 68.7885C19.8437 68.5202 20.2383 68.4485 20.5644 68.6114L21.8681 69.2627C22.3383 69.4972 22.9115 69.3881 23.2606 68.9956C23.3313 68.9168 23.3912 68.8268 23.4396 68.7285C23.7259 68.1447 23.4863 67.4327 22.9057 67.1423L16.5578 63.9718C16.5235 63.9547 16.4883 63.9402 16.4524 63.9264C16.4007 63.9085 16.3755 63.9002 16.3503 63.8927L16.0578 63.8502C16.0053 63.8502 15.9817 63.851 15.9582 63.8527L15.8879 63.8585C15.8813 63.8597 15.8462 63.8664 15.8396 63.8672L15.7821 63.8772C15.7805 63.8777 15.7416 63.8881 15.74 63.8885L15.5817 63.9422C15.5788 63.9435 15.5416 63.9597 15.5387 63.961L15.4904 63.9864L15.0474 63.2797L15.4425 64.0118C15.4268 64.021 15.4028 64.0377 15.3784 64.0539C15.3677 64.0614 15.3466 64.0772 15.3255 64.0935L15.1049 64.3152C15.0887 64.3364 15.073 64.3589 15.0582 64.3822C15.0516 64.3922 15.0367 64.4147 15.0297 64.4247C15.0251 64.4335 15.0082 64.4643 14.9925 64.4964C14.9879 64.5064 14.9838 64.5164 14.9805 64.5227C14.9673 64.5497 14.9565 64.5752 14.9466 64.601L14.9003 64.7493C14.8978 64.7585 14.892 64.7802 14.8896 64.7897L13.323 71.7381C13.1797 72.3743 13.5768 73.011 14.2086 73.156C14.5139 73.2268 14.8288 73.1735 15.0941 73.0052C15.359 72.8377 15.5429 72.576 15.6123 72.2685L15.8768 71.0964C15.9524 70.7618 16.223 70.5081 16.5594 70.4572C16.5991 70.4502 16.6404 70.4472 16.6813 70.4472Z" fill="#3762CC"/>
<path d="M88.4298 61.2499C87.5711 61.2499 86.7372 61.1453 85.9364 60.9536C85.5236 62.579 84.9893 64.2644 84.2955 65.9944C84.1442 66.3465 80.4161 74.8907 72.8422 80.6378C72.831 80.6465 72.8169 80.6574 72.8054 80.6661C72.7546 80.7065 67.9616 84.4603 60.4355 86.5911C60.6351 87.417 60.7434 88.2786 60.7434 89.1665C60.7434 89.6928 60.7041 90.2099 60.6322 90.7161C69.2917 88.4649 74.8141 84.2061 75.2678 83.8478C77.3058 82.2995 79.0855 80.5845 80.617 78.8653C85.4975 73.3861 87.8562 67.8636 87.9831 67.5611C87.9872 67.5515 87.9913 67.5419 87.9951 67.5319C88.8835 65.3203 89.5426 63.1769 90.024 61.1303C89.5046 61.2082 88.9719 61.2499 88.4298 61.2499Z" fill="#FFEA92"/>
<path d="M60.6328 91.5492C60.4316 91.5492 60.2349 91.4751 60.0816 91.3363C59.8758 91.1509 59.7758 90.8734 59.8151 90.5976C59.8832 90.1184 59.918 89.6367 59.918 89.1663C59.918 88.3684 59.8225 87.568 59.6337 86.7884C59.5279 86.3517 59.7845 85.9101 60.213 85.7884C67.5312 83.7167 72.2498 80.0467 72.2965 80.0101L72.8427 80.6376L72.3456 79.9717C79.7485 74.3542 83.3861 66.0155 83.5374 65.663C84.1692 64.0876 84.7097 62.4272 85.1361 60.7467C85.2481 60.3063 85.6882 60.0384 86.1275 60.1426C87.3684 60.4401 88.6461 60.4959 89.9035 60.3059C90.1746 60.2634 90.4485 60.363 90.6341 60.5667C90.8196 60.7701 90.8927 61.0534 90.8295 61.3226C90.3109 63.5272 89.6155 65.7217 88.7626 67.8447C88.758 67.8555 88.7411 67.8959 88.7361 67.9067C88.6452 68.1242 86.2308 73.8113 81.2328 79.4222C79.5175 81.3472 77.6783 83.0601 75.7663 84.5134C75.1725 84.9822 69.6056 89.2442 60.8394 91.5226C60.7708 91.5405 60.7014 91.5492 60.6328 91.5492ZM61.4002 87.1755C61.513 87.8338 61.5704 88.5009 61.5704 89.1663C61.5704 89.3092 61.5679 89.453 61.5622 89.5967C69.4965 87.2992 74.5386 83.3655 74.7589 83.1917C76.5985 81.7938 78.3584 80.1538 80.0027 78.308C84.8175 72.903 87.1266 67.4651 87.2225 67.2363C87.9039 65.5413 88.4779 63.8122 88.9374 62.0713C88.1328 62.108 87.3312 62.0576 86.5349 61.9242C86.1254 63.4147 85.6312 64.8855 85.0613 66.3063C84.8952 66.6938 81.087 75.4234 73.339 81.3026C73.27 81.358 68.6556 84.9717 61.4002 87.1755Z" fill="#3762CC"/>
<path d="M39.2562 11.6664C39.2562 11.1235 39.2972 10.5906 39.3736 10.0693C30.7757 12.2956 25.2864 16.4939 24.8335 16.8489C16.2777 23.2985 12.2244 32.6898 12.0562 33.0864C12.0521 33.096 12.048 33.106 12.0438 33.1156C11.1182 35.3952 10.4368 37.6027 9.94385 39.7068C10.474 39.6256 11.0174 39.5831 11.5703 39.5831C12.4178 39.5831 13.241 39.6852 14.0315 39.8718C14.4575 38.1973 15.0124 36.4573 15.7385 34.6664C15.8951 34.3052 19.6562 25.7827 27.2472 20.0681C27.2604 20.0581 27.2736 20.0481 27.2864 20.0377C27.3364 19.9977 32.0492 16.3127 39.5538 14.1968C39.3612 13.3852 39.2562 12.5381 39.2562 11.6664Z" fill="#FFEA92"/>
<path d="M14.0325 40.7054C13.9701 40.7054 13.9064 40.6983 13.8432 40.6833C12.6002 40.3896 11.3085 40.34 10.0684 40.5308C9.7961 40.5725 9.52254 40.4754 9.33659 40.2716C9.15023 40.0683 9.07668 39.7846 9.1399 39.5154C9.67172 37.2462 10.3916 34.9866 11.2796 32.8C11.2812 32.7958 11.2953 32.7625 11.2969 32.7587C11.4688 32.3537 15.6035 22.7666 24.3395 16.1816C24.9296 15.7191 30.4626 11.5166 39.1688 9.26205C39.437 9.19371 39.7217 9.2633 39.9275 9.44996C40.1333 9.63663 40.2325 9.91496 40.192 10.1908C40.1192 10.6816 40.0829 11.1779 40.0829 11.6666C40.0829 12.4487 40.1754 13.235 40.3581 14.0033C40.4614 14.4391 40.2048 14.8795 39.7771 15C32.4763 17.0575 27.8428 20.6583 27.7969 20.6941L27.7341 20.7421C20.311 26.33 16.6486 34.6491 16.4961 35.0008C15.8362 36.6283 15.2738 38.3429 14.8325 40.0791C14.737 40.455 14.4015 40.7054 14.0325 40.7054ZM11.5705 38.75C12.1916 38.75 12.8155 38.8012 13.4329 38.9029C13.8585 37.3541 14.3758 35.8262 14.9738 34.3516C15.1407 33.9654 18.9754 25.2554 26.7527 19.4004C26.8209 19.3471 31.3411 15.8012 38.592 13.6104C38.4845 12.9666 38.43 12.3158 38.43 11.6666C38.43 11.5075 38.4333 11.3479 38.4399 11.1883C30.5663 13.4608 25.5593 17.3358 25.3407 17.507C16.944 23.8366 12.9808 33.0262 12.8159 33.4141C12.1031 35.1696 11.5056 36.9608 11.0308 38.7629C11.2106 38.7541 11.3907 38.75 11.5705 38.75Z" fill="#3762CC"/>
</svg>
