<svg width="182" height="65" viewBox="0 0 182 65" fill="none" xmlns="http://www.w3.org/2000/svg">
<path d="M96.14 30.76C97.5 30.76 98.5933 31.18 99.42 32.02C100.26 32.8467 100.68 34.0067 100.68 35.5V42H97.88V35.88C97.88 35.0133 97.66 34.3533 97.22 33.9C96.78 33.4333 96.18 33.2 95.42 33.2C94.66 33.2 94.0533 33.4333 93.6 33.9C93.16 34.3533 92.94 35.0133 92.94 35.88V42H90.14V35.88C90.14 35.0133 89.92 34.3533 89.48 33.9C89.04 33.4333 88.44 33.2 87.68 33.2C86.9067 33.2 86.2933 33.4333 85.84 33.9C85.4 34.3533 85.18 35.0133 85.18 35.88V42H82.38V30.92H85.18V32.26C85.54 31.7933 86 31.4267 86.56 31.16C87.1333 30.8933 87.76 30.76 88.44 30.76C89.3067 30.76 90.08 30.9467 90.76 31.32C91.44 31.68 91.9667 32.2 92.34 32.88C92.7 32.24 93.22 31.7267 93.9 31.34C94.5933 30.9533 95.34 30.76 96.14 30.76ZM111.257 34.84C112.044 34.9867 112.69 35.38 113.197 36.02C113.704 36.66 113.957 37.3933 113.957 38.22C113.957 38.9667 113.77 39.6267 113.397 40.2C113.037 40.76 112.51 41.2 111.817 41.52C111.124 41.84 110.304 42 109.357 42H103.337V28.04H109.097C110.044 28.04 110.857 28.1933 111.537 28.5C112.23 28.8067 112.75 29.2333 113.097 29.78C113.457 30.3267 113.637 30.9467 113.637 31.64C113.637 32.4533 113.417 33.1333 112.977 33.68C112.55 34.2267 111.977 34.6133 111.257 34.84ZM106.137 33.8H108.697C109.364 33.8 109.877 33.6533 110.237 33.36C110.597 33.0533 110.777 32.62 110.777 32.06C110.777 31.5 110.597 31.0667 110.237 30.76C109.877 30.4533 109.364 30.3 108.697 30.3H106.137V33.8ZM108.957 39.72C109.637 39.72 110.164 39.56 110.537 39.24C110.924 38.92 111.117 38.4667 111.117 37.88C111.117 37.28 110.917 36.8133 110.517 36.48C110.117 36.1333 109.577 35.96 108.897 35.96H106.137V39.72H108.957ZM121.109 42.18C120.042 42.18 119.082 41.9467 118.229 41.48C117.375 41 116.702 40.3267 116.209 39.46C115.729 38.5933 115.489 37.5933 115.489 36.46C115.489 35.3267 115.735 34.3267 116.229 33.46C116.735 32.5933 117.422 31.9267 118.289 31.46C119.155 30.98 120.122 30.74 121.189 30.74C122.255 30.74 123.222 30.98 124.089 31.46C124.955 31.9267 125.635 32.5933 126.129 33.46C126.635 34.3267 126.889 35.3267 126.889 36.46C126.889 37.5933 126.629 38.5933 126.109 39.46C125.602 40.3267 124.909 41 124.029 41.48C123.162 41.9467 122.189 42.18 121.109 42.18ZM121.109 39.74C121.615 39.74 122.089 39.62 122.529 39.38C122.982 39.1267 123.342 38.7533 123.609 38.26C123.875 37.7667 124.009 37.1667 124.009 36.46C124.009 35.4067 123.729 34.6 123.169 34.04C122.622 33.4667 121.949 33.18 121.149 33.18C120.349 33.18 119.675 33.4667 119.129 34.04C118.595 34.6 118.329 35.4067 118.329 36.46C118.329 37.5133 118.589 38.3267 119.109 38.9C119.642 39.46 120.309 39.74 121.109 39.74ZM132.203 33.22V38.58C132.203 38.9533 132.289 39.2267 132.463 39.4C132.649 39.56 132.956 39.64 133.383 39.64H134.683V42H132.923C130.563 42 129.383 40.8533 129.383 38.56V33.22H128.063V30.92H129.383V28.18H132.203V30.92H134.683V33.22H132.203ZM153.402 42H150.602L144.262 32.42V42H141.462V28.02H144.262L150.602 37.62V28.02H153.402V42ZM166.469 36.22C166.469 36.62 166.442 36.98 166.389 37.3H158.289C158.356 38.1 158.636 38.7267 159.129 39.18C159.622 39.6333 160.229 39.86 160.949 39.86C161.989 39.86 162.729 39.4133 163.169 38.52H166.189C165.869 39.5867 165.256 40.4667 164.349 41.16C163.442 41.84 162.329 42.18 161.009 42.18C159.942 42.18 158.982 41.9467 158.129 41.48C157.289 41 156.629 40.3267 156.149 39.46C155.682 38.5933 155.449 37.5933 155.449 36.46C155.449 35.3133 155.682 34.3067 156.149 33.44C156.616 32.5733 157.269 31.9067 158.109 31.44C158.949 30.9733 159.916 30.74 161.009 30.74C162.062 30.74 163.002 30.9667 163.829 31.42C164.669 31.8733 165.316 32.52 165.769 33.36C166.236 34.1867 166.469 35.14 166.469 36.22ZM163.569 35.42C163.556 34.7 163.296 34.1267 162.789 33.7C162.282 33.26 161.662 33.04 160.929 33.04C160.236 33.04 159.649 33.2533 159.169 33.68C158.702 34.0933 158.416 34.6733 158.309 35.42H163.569ZM173.433 42.18C172.366 42.18 171.406 41.9467 170.553 41.48C169.699 41 169.026 40.3267 168.533 39.46C168.053 38.5933 167.813 37.5933 167.813 36.46C167.813 35.3267 168.059 34.3267 168.553 33.46C169.059 32.5933 169.746 31.9267 170.613 31.46C171.479 30.98 172.446 30.74 173.513 30.74C174.579 30.74 175.546 30.98 176.413 31.46C177.279 31.9267 177.959 32.5933 178.453 33.46C178.959 34.3267 179.213 35.3267 179.213 36.46C179.213 37.5933 178.953 38.5933 178.433 39.46C177.926 40.3267 177.233 41 176.353 41.48C175.486 41.9467 174.513 42.18 173.433 42.18ZM173.433 39.74C173.939 39.74 174.413 39.62 174.853 39.38C175.306 39.1267 175.666 38.7533 175.933 38.26C176.199 37.7667 176.333 37.1667 176.333 36.46C176.333 35.4067 176.053 34.6 175.493 34.04C174.946 33.4667 174.273 33.18 173.473 33.18C172.673 33.18 171.999 33.4667 171.453 34.04C170.919 34.6 170.653 35.4067 170.653 36.46C170.653 37.5133 170.913 38.3267 171.433 38.9C171.966 39.46 172.633 39.74 173.433 39.74Z" fill="#FC8E4A"/>
<circle cx="32.5" cy="32.5" r="32.5" fill="#EFAB10"/>
<path d="M45 32.239L28 46.4781V18L45 32.239Z" fill="white"/>
</svg>
