<svg width="128" height="128" viewBox="0 0 128 128" fill="none" xmlns="http://www.w3.org/2000/svg">
<g filter="url(#filter0_d_10_62)">
<rect x="64" y="60" width="60" height="60" fill="#FF6D59"/>
<rect x="4.00003" y="60" width="60" height="60" fill="#FF6D59"/>
<path d="M124 60L124 30C124 13.4315 110.569 -1.60169e-07 94 -3.57746e-07C77.4315 -5.55324e-07 64 13.4315 64 30L64 60L124 60Z" fill="#5CC8D7"/>
<path d="M4 60L4 30C4 13.4315 17.4315 -5.87108e-07 34 -1.31134e-06C50.5685 -2.03558e-06 64 13.4315 64 30L64 60L4 60Z" fill="#5CC8D7"/>
</g>
<defs>
<filter id="filter0_d_10_62" x="0" y="0" width="128" height="128" filterUnits="userSpaceOnUse" color-interpolation-filters="sRGB">
<feFlood flood-opacity="0" result="BackgroundImageFix"/>
<feColorMatrix in="SourceAlpha" type="matrix" values="0 0 0 0 0 0 0 0 0 0 0 0 0 0 0 0 0 0 127 0" result="hardAlpha"/>
<feOffset dy="4"/>
<feGaussianBlur stdDeviation="2"/>
<feComposite in2="hardAlpha" operator="out"/>
<feColorMatrix type="matrix" values="0 0 0 0 0 0 0 0 0 0 0 0 0 0 0 0 0 0 0.25 0"/>
<feBlend mode="normal" in2="BackgroundImageFix" result="effect1_dropShadow_10_62"/>
<feBlend mode="normal" in="SourceGraphic" in2="effect1_dropShadow_10_62" result="shape"/>
</filter>
</defs>
</svg>
